<svg width="228" height="228" viewBox="0 0 228 228" fill="none" xmlns="http://www.w3.org/2000/svg">
<mask id="mask0_1_758" style="mask-type:luminance" maskUnits="userSpaceOnUse" x="0" y="0" width="228" height="228">
<path d="M227.576 113.788C227.576 176.631 176.631 227.576 113.788 227.576C50.9448 227.576 0 176.631 0 113.788C0 50.9453 50.9448 -3.52635e-05 113.788 -3.52635e-05C176.631 -3.52635e-05 227.576 50.9453 227.576 113.788Z" fill="white"/>
</mask>
<g mask="url(#mask0_1_758)">
<path d="M227.576 113.788C227.576 176.631 176.631 227.576 113.788 227.576C50.9448 227.576 0 176.631 0 113.788C0 50.9453 50.9448 -3.52635e-05 113.788 -3.52635e-05C176.631 -3.52635e-05 227.576 50.9453 227.576 113.788Z" fill="#7BC4BD"/>
<path d="M208.039 68.9293C207.011 70.356 204.942 70.4586 203.198 70.208C202.568 70.12 201.919 70.0053 201.27 69.9373C205.706 75.6373 207.268 83.5026 205.26 90.4533C204.774 92.1573 203.812 94.0373 202.068 94.3626C200.162 94.7133 198.626 93.0506 196.888 92.0906C198.194 99.224 195.752 107.001 190.484 112.019C185.21 117.049 177.298 119.119 170.211 117.441C170.38 118.375 170.523 119.315 170.624 120.261C171.578 129.133 169.13 138.08 164.41 145.693C162.483 148.819 160.17 151.719 157.552 154.296C156.356 155.479 155.098 156.595 153.779 157.629C148.884 161.491 143.352 164.391 137.483 166.373L137.382 166.068C137.382 166.068 133.168 161.288 131.911 155.959C134.108 155.263 135.819 154.099 136.515 152.531C138.443 148.169 136.746 145.559 135.474 144.341C137.692 142.833 139.207 140.777 139.647 137.992C140.559 132.237 139.207 124.724 137.016 117.78C135.744 113.756 134.19 109.921 132.627 106.731C128.367 98.0213 113.828 98.6426 113.828 98.6426V98.4533C112.97 98.4266 99.195 98.1013 95.0696 106.541C93.5083 109.733 91.9523 113.567 90.6816 117.591C88.4909 124.541 87.139 132.055 88.051 137.809C88.491 140.595 90.0056 142.651 92.2296 144.152C90.9589 145.369 89.2616 147.98 91.1883 152.341C91.879 153.909 93.5963 155.073 95.787 155.769C94.5296 161.099 90.3163 165.879 90.3163 165.879L90.1683 166.325C84.319 164.344 78.8005 161.456 73.9183 157.601C72.5928 156.553 71.3215 155.432 70.1177 154.241C67.4939 151.651 65.1819 148.744 63.2475 145.605C58.5548 138.005 56.1272 129.087 57.074 120.235C57.1819 119.227 57.3308 118.233 57.5199 117.245C50.4199 118.936 42.5011 116.873 37.2131 111.829C31.9453 106.805 29.5043 99.0413 30.8163 91.9013C29.0781 92.8546 27.5366 94.524 25.636 94.1733C23.885 93.8546 22.9251 91.968 22.4376 90.264C20.4365 83.3133 21.998 75.448 26.4276 69.748C25.7781 69.816 25.1292 69.9306 24.5 70.0186C22.7557 70.2693 20.6865 70.1666 19.6589 68.74C18.9011 67.6786 18.9959 66.2386 19.2324 64.9533C20.8152 56.284 27.5163 48.7587 35.9281 46.1613C35.3672 45.4107 34.3667 44.8973 33.4803 44.464C32.2027 43.8426 30.7688 42.74 31.0595 41.3466C31.2423 40.4613 32.0672 39.8866 32.8448 39.4333C41.4532 34.4493 52.5631 34.0906 61.4694 38.5133C72.6808 44.0786 79.5313 56.0413 89.9723 62.7693C100.027 59.9026 113.916 59.9426 114.755 59.9493V60.1386C114.755 60.1386 128.05 60.004 137.855 62.884C148.227 56.136 155.058 44.248 166.228 38.7026C175.134 34.2813 186.244 34.6386 194.852 39.6226C195.631 40.076 196.455 40.6506 196.638 41.5293C196.935 42.9226 195.495 44.032 194.218 44.6533C193.338 45.08 192.338 45.6 191.77 46.344C200.182 48.948 206.883 56.4733 208.466 65.1426C208.702 66.428 208.796 67.868 208.039 68.9293Z" fill="#845A56"/>
<path d="M105.18 147.864C107.999 148.121 110.935 148.209 113.788 148.209C112.74 155.831 102.204 157.805 95.787 155.769C93.5963 155.073 91.879 153.911 91.1883 152.341C89.2616 147.98 90.9589 145.369 92.2296 144.152C95.4416 146.343 100.128 147.391 105.18 147.864Z" fill="#D68873"/>
<path d="M122.518 148.053C127.576 147.58 132.263 146.532 135.475 144.341C136.746 145.559 138.443 148.169 136.515 152.531C135.819 154.1 134.108 155.263 131.911 155.959C125.487 157.988 114.958 156.02 113.91 148.399C116.763 148.399 119.698 148.311 122.518 148.053Z" fill="#D68873"/>
<path d="M191.816 76.9694C192.371 84.9961 190.519 93.4761 185.238 99.5427C180.747 104.701 173.498 107.651 166.891 106.467C164.119 99.5827 160.46 92.9214 157.864 86.0041C160.663 86.2681 163.551 85.4694 165.796 83.7801C166.722 83.0827 167.608 82.0414 167.392 80.9054C167.188 79.7974 166.026 79.1334 164.938 78.8574C163.842 78.5721 162.658 78.5054 161.711 77.8894C166.682 77.2134 171.172 73.7241 173.052 69.0721C173.491 67.9894 173.788 66.7654 173.41 65.6707C172.842 64.0481 170.915 63.2294 169.204 63.3787C168.427 63.4454 167.69 63.6627 166.972 63.9667C170.327 60.6121 174.81 58.2867 179.415 58.9894C183.303 59.5841 186.658 62.3094 188.686 65.6907C190.715 69.0654 191.546 73.0414 191.816 76.9694Z" fill="#D68873"/>
<path d="M187.584 212.159C186.286 220.74 182.336 229.079 176 234.928H148.072C154.334 229.112 159.054 221.627 161.55 213.451C164.727 203.051 164.322 191.887 162.699 181.135C162.144 177.463 161.455 173.817 160.724 170.173C159.656 164.885 158.499 159.604 157.552 154.296C160.17 151.719 162.483 148.819 164.41 145.693C165.702 149.339 167.851 152.815 169.914 156.108C171.186 158.123 172.436 160.159 173.66 162.207C177.575 168.767 181.166 175.521 183.818 182.676C187.286 192.069 189.078 202.26 187.584 212.159Z" fill="#845A56"/>
<path d="M161.55 213.451C159.054 221.627 154.334 229.112 148.072 234.928H113.828V234.745H79.6324C73.3636 228.923 68.6439 221.444 66.1485 213.261C63.2407 203.74 63.3355 193.564 64.6272 183.657C64.7349 182.751 64.8641 181.851 64.9991 180.952C66.3516 171.985 68.522 163.16 70.1177 154.241C71.3215 155.432 72.5928 156.553 73.9183 157.601C78.8005 161.456 84.3189 164.344 90.1683 166.325C97.7149 168.881 105.808 169.923 113.828 169.571V169.599C121.842 169.956 129.943 168.921 137.483 166.373C143.352 164.391 148.884 161.491 153.779 157.629C155.098 156.595 156.356 155.479 157.552 154.296C158.499 159.604 159.656 164.885 160.724 170.173C161.455 173.817 162.144 177.463 162.699 181.135C164.322 191.887 164.727 203.051 161.55 213.451Z" fill="#F9EADA"/>
<path d="M135.475 144.341C132.263 146.532 127.576 147.58 122.518 148.053C122.126 140.9 123.424 133.657 126.284 127.084C127.644 123.953 129.476 120.849 132.384 119.057C133.75 118.219 135.407 117.767 137.016 117.78C139.207 124.724 140.559 132.237 139.647 137.992C139.207 140.777 137.692 142.833 135.475 144.341Z" fill="#69362B"/>
<path d="M113.91 148.399C114.958 156.02 125.487 157.988 131.911 155.959C133.168 161.288 137.382 166.068 137.382 166.068L137.483 166.373C129.943 168.923 121.842 169.956 113.828 169.599V169.571C105.808 169.923 97.7149 168.881 90.1683 166.325L90.3163 165.879C90.3163 165.879 94.5296 161.099 95.7869 155.769C102.204 157.805 112.74 155.831 113.788 148.209C113.815 148.02 113.835 147.817 113.842 147.615C113.855 147.885 113.876 148.148 113.91 148.399Z" fill="#F9EADA"/>
<path d="M113.842 147.615C113.835 147.817 113.815 148.02 113.788 148.209C110.935 148.209 107.999 148.121 105.18 147.864C105.572 140.711 104.274 133.468 101.414 126.895C100.054 123.764 98.2216 120.66 95.3136 118.868C93.9482 118.029 92.2909 117.577 90.6816 117.591C91.9522 113.567 93.5083 109.732 95.0696 106.541C99.1949 98.1014 112.97 98.4267 113.828 98.4534V98.6427C113.828 98.6427 128.367 98.0213 132.627 106.731C134.19 109.921 135.744 113.756 137.016 117.78C135.407 117.767 133.75 118.219 132.384 119.057C129.476 120.849 127.644 123.953 126.284 127.084C123.424 133.657 122.126 140.9 122.518 148.053C119.698 148.311 116.763 148.399 113.91 148.399C113.876 148.148 113.855 147.885 113.842 147.615Z" fill="#54200E"/>
<path d="M92.2296 144.152C90.0056 142.651 88.4909 140.595 88.0509 137.809C87.1389 132.055 88.4909 124.541 90.6816 117.591C92.2909 117.577 93.9482 118.029 95.3136 118.868C98.2216 120.66 100.054 123.764 101.414 126.895C104.274 133.468 105.572 140.711 105.18 147.864C100.128 147.391 95.4416 146.343 92.2296 144.152Z" fill="#69362B"/>
<path d="M79.6324 234.745H51.7048C45.3615 228.903 41.4125 220.557 40.1141 211.976C38.6199 202.069 40.4115 191.887 43.8808 182.493C45.0844 179.235 46.4839 176.063 48.0261 172.959C50.9204 167.096 54.3079 161.464 57.7839 155.919C59.8256 152.659 61.9563 149.211 63.2475 145.605C65.1819 148.744 67.4939 151.651 70.1177 154.241C68.522 163.16 66.3516 171.985 64.9991 180.952C64.8641 181.851 64.7349 182.751 64.6272 183.657C63.3355 193.564 63.2407 203.74 66.1485 213.261C68.6439 221.444 73.3636 228.923 79.6324 234.745Z" fill="#845A56"/>
<path d="M61.9016 83.5971C64.1672 85.2945 67.0819 86.0918 69.8948 85.8078C67.3183 92.7251 63.66 99.3931 60.874 106.27C54.2537 107.481 46.9709 104.532 42.4672 99.3598C37.1792 93.2865 35.3267 84.8065 35.8813 76.7798C36.1516 72.8518 36.9833 68.8758 39.012 65.5011C41.0407 62.1198 44.3948 59.3945 48.2896 58.7998C52.8948 58.0971 57.3715 60.4225 60.7251 63.7771C60.0084 63.4731 59.2715 63.2558 58.4939 63.1878C56.7829 63.0398 54.8557 63.8585 54.2943 65.4811C53.9089 66.5838 54.2063 67.7998 54.6459 68.8825C56.5261 73.5345 61.0163 77.0305 65.9928 77.6998C65.0396 78.3158 63.8563 78.3905 62.7672 78.6678C61.672 78.9518 60.5089 79.6065 60.3057 80.7158C60.0964 81.8585 60.9824 82.8998 61.9016 83.5971Z" fill="#D68873"/>
<path d="M105.18 147.864C107.999 148.121 110.935 148.209 113.788 148.209C112.74 155.831 102.204 157.805 95.787 155.769C93.5963 155.073 91.879 153.911 91.1883 152.341C89.2616 147.98 90.9589 145.369 92.2296 144.152C95.4416 146.343 100.128 147.391 105.18 147.864Z" fill="#D68873"/>
<path d="M122.518 148.053C127.576 147.58 132.263 146.532 135.475 144.341C136.746 145.559 138.443 148.169 136.515 152.531C135.819 154.1 134.108 155.263 131.911 155.959C125.487 157.988 114.958 156.02 113.91 148.399C116.763 148.399 119.698 148.311 122.518 148.053Z" fill="#D68873"/>
<path d="M191.816 76.9694C192.371 84.9961 190.519 93.4761 185.238 99.5427C180.747 104.701 173.498 107.651 166.891 106.467C164.119 99.5827 160.46 92.9214 157.864 86.0041C160.663 86.2681 163.551 85.4694 165.796 83.7801C166.722 83.0827 167.608 82.0414 167.392 80.9054C167.188 79.7974 166.026 79.1334 164.938 78.8574C163.842 78.5721 162.658 78.5054 161.711 77.8894C166.682 77.2134 171.172 73.7241 173.052 69.0721C173.491 67.9894 173.788 66.7654 173.41 65.6707C172.842 64.0481 170.915 63.2294 169.204 63.3787C168.427 63.4454 167.69 63.6627 166.972 63.9667C170.327 60.6121 174.81 58.2867 179.415 58.9894C183.303 59.5841 186.658 62.3094 188.686 65.6907C190.715 69.0654 191.546 73.0414 191.816 76.9694Z" fill="#D68873"/>
<path d="M187.584 212.159C186.286 220.74 182.336 229.079 176 234.928H148.072C154.334 229.112 159.054 221.627 161.55 213.451C164.727 203.051 164.322 191.887 162.699 181.135C162.144 177.463 161.455 173.817 160.724 170.173C159.656 164.885 158.499 159.604 157.552 154.296C160.17 151.719 162.483 148.819 164.41 145.693C165.702 149.339 167.851 152.815 169.914 156.108C171.186 158.123 172.436 160.159 173.66 162.207C177.575 168.767 181.166 175.521 183.818 182.676C187.286 192.069 189.078 202.26 187.584 212.159Z" fill="#845A56"/>
<path d="M161.55 213.451C159.054 221.627 154.334 229.112 148.072 234.928H113.828V234.745H79.6324C73.3636 228.923 68.6439 221.444 66.1485 213.261C63.2407 203.74 63.3355 193.564 64.6272 183.657C64.7349 182.751 64.8641 181.851 64.9991 180.952C66.3516 171.985 68.522 163.16 70.1177 154.241C71.3215 155.432 72.5928 156.553 73.9183 157.601C78.8005 161.456 84.3189 164.344 90.1683 166.325C97.7149 168.881 105.808 169.923 113.828 169.571V169.599C121.842 169.956 129.943 168.921 137.483 166.373C143.352 164.391 148.884 161.491 153.779 157.629C155.098 156.595 156.356 155.479 157.552 154.296C158.499 159.604 159.656 164.885 160.724 170.173C161.455 173.817 162.144 177.463 162.699 181.135C164.322 191.887 164.727 203.051 161.55 213.451Z" fill="#F9EADA"/>
<path d="M135.475 144.341C132.263 146.532 127.576 147.58 122.518 148.053C122.126 140.9 123.424 133.657 126.284 127.084C127.644 123.953 129.476 120.849 132.384 119.057C133.75 118.219 135.407 117.767 137.016 117.78C139.207 124.724 140.559 132.237 139.647 137.992C139.207 140.777 137.692 142.833 135.475 144.341Z" fill="#69362B"/>
<path d="M113.91 148.399C114.958 156.02 125.487 157.988 131.911 155.959C133.168 161.288 137.382 166.068 137.382 166.068L137.483 166.373C129.943 168.923 121.842 169.956 113.828 169.599V169.571C105.808 169.923 97.7149 168.881 90.1683 166.325L90.3163 165.879C90.3163 165.879 94.5296 161.099 95.7869 155.769C102.204 157.805 112.74 155.831 113.788 148.209C113.815 148.02 113.835 147.817 113.842 147.615C113.855 147.885 113.876 148.148 113.91 148.399Z" fill="#F9EADA"/>
<path d="M113.842 147.615C113.835 147.817 113.815 148.02 113.788 148.209C110.935 148.209 107.999 148.121 105.18 147.864C105.572 140.711 104.274 133.468 101.414 126.895C100.054 123.764 98.2216 120.66 95.3136 118.868C93.9482 118.029 92.2909 117.577 90.6816 117.591C91.9522 113.567 93.5083 109.732 95.0696 106.541C99.1949 98.1014 112.97 98.4267 113.828 98.4534V98.6427C113.828 98.6427 128.367 98.0213 132.627 106.731C134.19 109.921 135.744 113.756 137.016 117.78C135.407 117.767 133.75 118.219 132.384 119.057C129.476 120.849 127.644 123.953 126.284 127.084C123.424 133.657 122.126 140.9 122.518 148.053C119.698 148.311 116.763 148.399 113.91 148.399C113.876 148.148 113.855 147.885 113.842 147.615Z" fill="#54200E"/>
<path d="M92.2296 144.152C90.0056 142.651 88.4909 140.595 88.0509 137.809C87.1389 132.055 88.4909 124.541 90.6816 117.591C92.2909 117.577 93.9482 118.029 95.3136 118.868C98.2216 120.66 100.054 123.764 101.414 126.895C104.274 133.468 105.572 140.711 105.18 147.864C100.128 147.391 95.4416 146.343 92.2296 144.152Z" fill="#69362B"/>
<path d="M79.6324 234.745H51.7048C45.3615 228.903 41.4125 220.557 40.1141 211.976C38.6199 202.069 40.4115 191.887 43.8808 182.493C45.0844 179.235 46.4839 176.063 48.0261 172.959C50.9204 167.096 54.3079 161.464 57.7839 155.919C59.8256 152.659 61.9563 149.211 63.2475 145.605C65.1819 148.744 67.4939 151.651 70.1177 154.241C68.522 163.16 66.3516 171.985 64.9991 180.952C64.8641 181.851 64.7349 182.751 64.6272 183.657C63.3355 193.564 63.2407 203.74 66.1485 213.261C68.6439 221.444 73.3636 228.923 79.6324 234.745Z" fill="#845A56"/>
<path d="M61.9016 83.5971C64.1672 85.2945 67.0819 86.0918 69.8948 85.8078C67.3183 92.7251 63.66 99.3931 60.874 106.27C54.2537 107.481 46.9709 104.532 42.4672 99.3598C37.1792 93.2865 35.3267 84.8065 35.8813 76.7798C36.1516 72.8518 36.9833 68.8758 39.012 65.5011C41.0407 62.1198 44.3948 59.3945 48.2896 58.7998C52.8948 58.0971 57.3715 60.4225 60.7251 63.7771C60.0084 63.4731 59.2715 63.2558 58.4939 63.1878C56.7829 63.0398 54.8557 63.8585 54.2943 65.4811C53.9089 66.5838 54.2063 67.7998 54.6459 68.8825C56.5261 73.5345 61.0163 77.0305 65.9928 77.6998C65.0396 78.3158 63.8563 78.3905 62.7672 78.6678C61.672 78.9518 60.5089 79.6065 60.3057 80.7158C60.0964 81.8585 60.9824 82.8998 61.9016 83.5971Z" fill="#D68873"/>
</g>
<mask id="mask1_1_758" style="mask-type:luminance" maskUnits="userSpaceOnUse" x="0" y="0" width="228" height="228">
<path d="M227.576 113.788C227.576 176.631 176.631 227.576 113.788 227.576C50.9448 227.576 0 176.631 0 113.788C0 50.9453 50.9448 -3.52635e-05 113.788 -3.52635e-05C176.631 -3.52635e-05 227.576 50.9453 227.576 113.788Z" fill="white"/>
</mask>
<g mask="url(#mask1_1_758)">
<path d="M97.1576 190.185C85.9749 190.185 74.7615 188.176 64.6272 183.657C64.7349 182.75 64.8641 181.85 64.9991 180.952C66.3516 171.985 68.522 163.16 70.1177 154.241C71.3215 155.432 72.5928 156.553 73.9183 157.601C78.8005 161.456 84.3189 164.344 90.1683 166.325C90.2029 166.337 90.2376 166.349 90.2736 166.361C96.6523 168.508 103.419 169.574 110.2 169.634C110.402 169.636 110.603 169.637 110.804 169.637C110.855 169.637 110.904 169.637 110.955 169.637C111.878 169.634 112.799 169.614 113.72 169.576C113.756 169.574 113.792 169.572 113.828 169.57V169.598C114.854 169.644 115.88 169.666 116.907 169.666C118.282 169.666 119.656 169.625 121.028 169.542C123.934 169.366 126.824 169.001 129.671 168.442C132.322 167.922 134.935 167.234 137.483 166.373C143.352 164.39 148.884 161.49 153.779 157.629C155.098 156.594 156.356 155.478 157.552 154.296C158.499 159.604 159.656 164.885 160.724 170.173C145.367 179.126 129.144 186.462 111.543 189.1C106.815 189.81 101.988 190.185 97.1576 190.185Z" fill="#F5DEC7"/>
<path d="M110.2 169.635C103.419 169.575 96.6522 168.508 90.2736 166.361C96.6509 168.508 103.419 169.575 110.2 169.635ZM129.671 168.443C132.323 167.923 134.934 167.235 137.483 166.373C134.935 167.235 132.322 167.923 129.671 168.443Z" fill="#F5DEC7"/>
<path d="M64.6272 183.657C59.6027 181.432 54.8491 178.585 50.4943 175.063C49.6829 174.407 48.8505 173.703 48.0261 172.959C50.9204 167.096 54.3079 161.464 57.7839 155.919C59.8256 152.659 61.9563 149.211 63.2475 145.605C65.1819 148.744 67.4939 151.651 70.1177 154.241C68.522 163.16 66.3516 171.985 64.9991 180.952C64.8641 181.851 64.7349 182.751 64.6272 183.657Z" fill="#5E3734"/>
<path d="M114.072 168.776C122.059 169.112 130.056 168.006 137.216 165.584C143.172 163.573 148.571 160.677 153.264 156.976C154.528 155.984 155.774 154.884 156.967 153.704C159.542 151.17 161.806 148.329 163.702 145.257C168.523 137.48 170.687 128.634 169.798 120.35C169.703 119.472 169.571 118.568 169.392 117.59C169.343 117.313 169.435 117.03 169.639 116.837C169.842 116.644 170.128 116.568 170.403 116.632C177.238 118.249 184.894 116.202 189.91 111.416C194.912 106.652 197.33 99.1238 196.07 92.2398C196.012 91.9238 196.142 91.6024 196.403 91.4144C196.663 91.2278 197.008 91.2064 197.291 91.3611C197.795 91.6411 198.274 91.9678 198.735 92.2838C199.878 93.0638 200.867 93.7384 201.918 93.5438C203.383 93.2718 204.139 91.3478 204.46 90.2251C206.388 83.5518 204.914 75.9744 200.614 70.4478C200.41 70.1851 200.382 69.8251 200.543 69.5331C200.704 69.2411 201.024 69.0758 201.356 69.1091C201.799 69.1558 202.242 69.2224 202.679 69.2891L203.312 69.3838C204.708 69.5824 206.543 69.5838 207.364 68.4438C207.979 67.5811 207.82 66.2331 207.647 65.2931V65.2918C206.123 56.9478 199.644 49.6518 191.523 47.1384C191.264 47.0584 191.06 46.8557 190.978 46.5971C190.895 46.3384 190.943 46.0558 191.108 45.8384C191.783 44.9544 192.88 44.3771 193.855 43.9051C194.923 43.3851 196.002 42.5331 195.824 41.7038C195.71 41.1491 195.058 40.7038 194.434 40.3411C186.124 35.5291 175.198 35.1784 166.599 39.4478C160.564 42.4438 155.69 47.4664 150.978 52.3224C147.074 56.3451 143.038 60.5051 138.308 63.5824C138.104 63.7144 137.852 63.7504 137.62 63.6824C128.048 60.8704 114.898 60.9704 114.763 60.9704C114.59 60.9864 114.376 60.9051 114.226 60.7811C111.524 60.7891 99.2883 60.9784 90.2003 63.5691C89.9683 63.6344 89.7216 63.5984 89.5216 63.4691C84.7363 60.3851 80.6605 56.1877 76.7193 52.1291C72.0053 47.2731 67.1308 42.2531 61.099 39.2584C52.5021 34.9891 41.5751 35.3411 33.2615 40.1531C32.6407 40.5144 31.9886 40.9611 31.8745 41.5144C31.7005 42.3464 32.7781 43.1971 33.8448 43.7158C34.8772 44.2211 35.9391 44.7864 36.5948 45.6624C36.7568 45.8797 36.8037 46.1624 36.7193 46.4184C36.636 46.6758 36.4324 46.8771 36.174 46.9571C28.0537 49.4624 21.5745 56.7557 20.0511 65.1024C19.8776 66.0437 19.7188 67.3918 20.336 68.2571C21.1548 69.3944 22.9891 69.3944 24.3819 69.1944L25.0078 69.1024C25.4485 69.0344 25.8953 68.9664 26.3417 68.9198C26.6677 68.8864 26.9933 69.0531 27.1553 69.3438C27.3166 69.6358 27.2891 69.9958 27.0844 70.2584C22.7901 75.7851 21.3163 83.3624 23.2371 90.0344C23.5595 91.1611 24.3177 93.0878 25.7849 93.3544C26.8308 93.5464 27.8167 92.8757 28.9573 92.0984C29.4235 91.7797 29.9063 91.4504 30.4163 91.1704C30.6975 91.0184 31.0428 91.0371 31.3032 91.2264C31.5636 91.4144 31.6923 91.7358 31.6344 92.0504C30.3709 98.9291 32.786 106.456 37.7876 111.226C42.8125 116.021 50.4824 118.065 57.3272 116.436C57.6032 116.372 57.8907 116.449 58.0948 116.644C58.2991 116.84 58.3901 117.125 58.3371 117.402C58.1527 118.365 58.0057 119.348 57.9011 120.322C57.0167 128.589 59.1666 137.413 63.9557 145.169C65.8573 148.254 68.1272 151.108 70.7027 153.649C71.8724 154.806 73.1276 155.916 74.4344 156.949C79.0975 160.63 84.4816 163.521 90.4349 165.537C97.6629 167.985 105.742 169.094 113.792 168.74L114.072 168.776ZM116.856 170.497C115.835 170.497 114.814 170.474 113.791 170.429L113.654 170.412C105.467 170.749 97.2603 169.606 89.9003 167.113C83.7669 165.036 78.2157 162.054 73.4032 158.254C72.048 157.184 70.7459 156.032 69.5333 154.832C66.8641 152.198 64.5105 149.241 62.5396 146.042C57.5584 137.974 55.3229 128.778 56.2469 120.145C56.312 119.533 56.3938 118.92 56.4901 118.309C49.4349 119.558 41.7641 117.321 36.6386 112.43C31.6829 107.704 29.0797 100.47 29.7433 93.5758C28.5193 94.4091 27.1344 95.2984 25.4849 94.9904C23.7188 94.6704 22.3876 93.1144 21.6381 90.4931C19.7532 83.9464 20.9079 76.5891 24.6329 70.8398L24.6157 70.8424C21.9683 71.2224 20.0188 70.6638 18.9833 69.2264C17.9975 67.8438 18.1865 66.0397 18.4147 64.8024C19.9589 56.3437 26.2557 48.8944 34.2969 45.8438C33.8928 45.5918 33.4589 45.3798 33.1152 45.2118C30.974 44.1691 29.9272 42.6984 30.2448 41.1771C30.4912 39.9838 31.486 39.2624 32.4256 38.7144C41.3459 33.5504 52.6157 33.1878 61.839 37.7691C68.1261 40.8891 73.1016 46.0131 77.913 50.9691C81.7016 54.8717 85.6162 58.9037 90.1096 61.8664C100.356 59.0397 114.171 59.1118 114.762 59.1171C114.959 59.1184 115.14 59.1891 115.283 59.3064C117.863 59.3118 128.958 59.4918 137.718 61.9784C142.158 59.0238 146.032 55.0291 149.783 51.1637C154.594 46.2064 159.568 41.0798 165.859 37.9571C175.083 33.3771 186.352 33.7398 195.27 38.9024C196.211 39.4517 197.206 40.1718 197.452 41.3598C197.778 42.8798 196.731 44.3544 194.582 45.4011C194.191 45.5904 193.779 45.7971 193.407 46.0291C201.446 49.0864 207.74 56.5371 209.283 64.9931C209.511 66.2304 209.7 68.0331 208.716 69.4131C207.679 70.8531 205.73 71.4104 203.079 71.0304L203.067 71.0291C206.796 76.7797 207.951 84.1371 206.059 90.6838C205.314 93.2958 203.986 94.8518 202.22 95.1798C200.564 95.4824 199.183 94.6024 197.96 93.7691C198.62 100.668 196.015 107.9 191.059 112.621C185.94 117.502 178.278 119.742 171.232 118.501C171.32 119.073 171.392 119.628 171.451 120.173C172.382 128.824 170.131 138.042 165.116 146.132C163.152 149.316 160.803 152.262 158.136 154.888C156.898 156.112 155.604 157.254 154.292 158.284C149.452 162.101 143.886 165.089 137.748 167.16C131.251 169.357 124.086 170.497 116.856 170.497Z" fill="#54200E"/>
<path d="M113.843 146.782C114.283 146.782 114.646 147.125 114.672 147.564C117.575 147.548 120.123 147.437 122.442 147.225C128.156 146.69 132.267 145.522 135.006 143.654C137.196 142.165 138.444 140.27 138.824 137.862V137.861C139.614 132.89 138.69 125.848 136.223 118.03C135.022 114.226 133.519 110.445 131.88 107.096C127.911 98.9811 114.004 99.4718 113.864 99.4745C113.648 99.4785 113.451 99.4118 113.292 99.2785C110.7 99.2812 99.3349 99.7091 95.8176 106.905C94.1776 110.257 92.6762 114.038 91.4749 117.841C89.0096 125.665 88.0842 132.712 88.8736 137.678C89.2536 140.092 90.5042 141.984 92.6949 143.462C95.4376 145.332 99.5456 146.501 105.258 147.036C107.58 147.248 110.135 147.36 113.046 147.376C113.147 147.033 113.463 146.785 113.836 146.782H113.843ZM113.91 149.23C113.711 149.23 113.526 149.16 113.38 149.04C110.279 149.032 107.568 148.917 105.104 148.693C99.1016 148.13 94.7376 146.869 91.7616 144.84C89.2056 143.116 87.6802 140.792 87.2296 137.938C86.1682 131.253 88.0896 123.046 89.8883 117.34C91.1149 113.46 92.6469 109.598 94.3229 106.174C98.6109 97.4038 112.308 97.5772 113.855 97.6212C114.039 97.6278 114.208 97.6931 114.343 97.7998C117.134 97.7691 129.359 98.1531 133.375 106.365C135.05 109.786 136.583 113.648 137.81 117.529C139.608 123.23 141.53 131.432 140.468 138.121C140.019 140.968 138.496 143.293 135.942 145.029C132.966 147.06 128.599 148.32 122.595 148.882C120.022 149.117 117.182 149.23 113.91 149.23Z" fill="#54200E"/>
<path d="M113.843 146.782C114.283 146.782 114.646 147.125 114.672 147.564C117.575 147.548 120.123 147.437 122.442 147.225C128.156 146.69 132.267 145.522 135.006 143.654C137.196 142.165 138.444 140.27 138.824 137.862V137.861C139.614 132.89 138.69 125.848 136.223 118.03C135.022 114.226 133.519 110.445 131.88 107.096C127.911 98.9811 114.004 99.4718 113.864 99.4745C113.648 99.4785 113.451 99.4118 113.292 99.2785C110.7 99.2812 99.3349 99.7091 95.8176 106.905C94.1776 110.257 92.6762 114.038 91.4749 117.841C89.0096 125.665 88.0842 132.712 88.8736 137.678C89.2536 140.092 90.5042 141.984 92.6949 143.462C95.4376 145.332 99.5456 146.501 105.258 147.036C107.58 147.248 110.135 147.36 113.046 147.376C113.147 147.033 113.463 146.785 113.836 146.782H113.843ZM113.91 149.23C113.711 149.23 113.526 149.16 113.38 149.04C110.279 149.032 107.568 148.917 105.104 148.693C99.1016 148.13 94.7376 146.869 91.7616 144.84C89.2056 143.116 87.6802 140.792 87.2296 137.938C86.1682 131.253 88.0896 123.046 89.8883 117.34C91.1149 113.46 92.6469 109.598 94.3229 106.174C98.6109 97.4038 112.308 97.5772 113.855 97.6212C114.039 97.6278 114.208 97.6931 114.343 97.7998C117.134 97.7691 129.359 98.1531 133.375 106.365C135.05 109.786 136.583 113.648 137.81 117.529C139.608 123.23 141.53 131.432 140.468 138.121C140.019 140.968 138.496 143.293 135.942 145.029C132.966 147.06 128.599 148.32 122.595 148.882C120.022 149.117 117.182 149.23 113.91 149.23Z" fill="#54200E"/>
<path d="M176 235.759C175.776 235.759 175.552 235.669 175.388 235.492C175.076 235.153 175.098 234.628 175.435 234.316C181.398 228.813 185.419 220.9 186.762 212.035C188.111 203.091 186.858 193.311 183.036 182.964C180.754 176.801 177.547 170.34 172.946 162.633C171.754 160.637 170.496 158.591 169.211 156.551C167.58 153.951 165.608 150.801 164.227 147.52C162.455 150.175 160.411 152.648 158.136 154.888C156.898 156.112 155.604 157.255 154.292 158.284C149.452 162.101 143.886 165.089 137.748 167.16C130.334 169.668 122.047 170.797 113.791 170.429L113.654 170.412C105.467 170.749 97.2602 169.605 89.9002 167.113C83.7669 165.036 78.2157 162.055 73.4032 158.255C72.048 157.184 70.7458 156.032 69.5333 154.832C67.2537 152.583 65.2042 150.097 63.4266 147.428C62.0464 150.683 60.0974 153.792 58.4881 156.36C55.3682 161.337 51.7734 167.247 48.772 173.327C47.1496 176.593 45.8048 179.685 44.6609 182.781C40.8406 193.125 39.5876 202.907 40.937 211.853C42.2792 220.727 46.3037 228.639 52.2688 234.133C52.6062 234.444 52.6281 234.971 52.3166 235.309C52.0057 235.647 51.4786 235.668 51.1406 235.357C44.899 229.608 40.6906 221.348 39.2917 212.101C37.9 202.875 39.1813 192.816 43.1005 182.205C44.2646 179.052 45.6324 175.907 47.2808 172.588C50.3141 166.443 53.936 160.489 57.0786 155.476C58.8974 152.575 61.1605 148.964 62.4646 145.325C62.5724 145.024 62.8433 144.812 63.1609 144.779C63.4797 144.748 63.7886 144.897 63.9557 145.171C65.8573 148.255 68.1272 151.108 70.7026 153.649C71.8724 154.807 73.1276 155.916 74.4344 156.949C79.0974 160.631 84.4816 163.521 90.4349 165.537C97.6629 167.985 105.74 169.095 113.792 168.74L114.072 168.776C122.059 169.112 130.056 168.007 137.216 165.584C143.172 163.573 148.571 160.677 153.264 156.976C154.528 155.984 155.774 154.884 156.967 153.704C159.542 151.171 161.806 148.329 163.702 145.257C163.87 144.985 164.175 144.832 164.498 144.867C164.816 144.9 165.087 145.113 165.194 145.416C166.49 149.075 168.683 152.576 170.619 155.665C171.911 157.715 173.175 159.772 174.375 161.78C179.028 169.577 182.278 176.125 184.598 182.387C188.518 193.001 189.799 203.059 188.407 212.284C187.008 221.521 182.803 229.78 176.564 235.539C176.404 235.687 176.202 235.759 176 235.759Z" fill="#54200E"/>
<path d="M57.5204 118.079L57.2838 118.044C56.8433 117.913 56.5917 117.451 56.722 117.009C57.0146 116.023 63.9709 92.7159 72.0057 82.1053C72.2824 81.7386 72.8048 81.6653 73.1714 81.9439C73.5376 82.2213 73.61 82.7439 73.3329 83.1093C65.4808 93.4773 58.3886 117.243 58.3177 117.481C58.2105 117.844 57.8792 118.079 57.5204 118.079Z" fill="#54200E"/>
<path d="M170.211 118.273C169.855 118.273 169.524 118.043 169.415 117.684C169.331 117.403 160.824 89.5585 155.502 83.3359C155.203 82.9865 155.243 82.4612 155.594 82.1625C155.942 81.8652 156.467 81.9052 156.766 82.2545C162.314 88.7399 170.655 116.04 171.007 117.199C171.14 117.639 170.894 118.104 170.454 118.237L170.211 118.273Z" fill="#54200E"/>
<path d="M68.1396 86.9573C66.0011 86.9573 63.8709 86.3186 62.0928 85.1133C60.5881 84.0933 59.0453 82.1679 59.6511 80.0959C59.9776 78.9799 60.9209 78.0399 62.1917 77.5546C60.848 76.9946 59.4912 76.2973 58.2349 75.3813C55.774 73.5879 54.1329 71.2066 53.6131 68.6759C53.2672 66.9879 53.4761 64.7346 55.1005 63.4719C56.1579 62.6493 57.4105 62.4959 58.7235 62.6546C55.7428 59.8653 51.2027 58.6773 47.2939 59.8706C43.9699 60.8866 40.9849 63.4999 39.1057 67.0426C37.5204 70.0319 36.6439 73.7479 36.5 78.0879C36.4849 78.5479 36.1032 78.9173 35.6407 78.8919C35.1819 78.8759 34.822 78.4919 34.8371 78.0319C34.9891 73.4373 35.9308 69.4772 37.636 66.2626C39.7209 62.3332 43.0641 59.4226 46.8084 58.2799C52.2516 56.6199 58.5032 58.8413 61.6751 63.5666C61.8709 63.8599 61.8615 64.2439 61.6511 64.5266C61.4407 64.8093 61.0751 64.9293 60.7387 64.8253C59.0032 64.2893 57.2423 63.9133 56.122 64.7853C55.098 65.5813 55.0084 67.1986 55.2428 68.3413C55.6792 70.4653 57.0896 72.4879 59.2147 74.0373C61.322 75.5733 63.8027 76.4573 65.9516 77.1213C66.3433 77.2413 66.5887 77.6293 66.5303 78.0346C66.4709 78.4399 66.1261 78.7426 65.7163 78.7479C64.7568 78.7586 63.7647 78.7706 62.9011 79.0666C62.248 79.2906 61.4715 79.8012 61.2485 80.5626C60.9167 81.6972 61.9021 82.9746 63.0261 83.7359C64.9647 85.0506 67.3975 85.5679 69.7053 85.1559C70.1625 85.0773 70.5896 85.3772 70.6704 85.8292C70.7511 86.2812 70.4496 86.7133 69.9975 86.7946C69.3833 86.9039 68.7609 86.9573 68.1396 86.9573Z" fill="#54200E"/>
<path d="M160.28 87.1238C159.574 87.1238 158.868 87.0518 158.178 86.9024C157.728 86.8064 157.443 86.3638 157.539 85.9144C157.635 85.4651 158.075 85.1811 158.527 85.2758C160.918 85.7904 163.51 85.2211 165.463 83.7531C166.483 82.9891 167.308 81.6838 166.83 80.7704C166.542 80.2198 165.82 79.8478 164.683 79.6651C164.488 79.6331 164.291 79.6064 164.092 79.5784C163.17 79.4504 162.122 79.3064 161.222 78.7238C160.952 78.5504 160.807 78.2358 160.848 77.9184C160.89 77.5998 161.11 77.3344 161.415 77.2344C164.994 76.0678 168.198 73.9544 170.682 71.1264C171.29 70.4331 172.031 69.4998 172.366 68.4344C172.678 67.4438 172.576 66.4478 172.094 65.7691C171.627 65.1131 170.76 64.6931 169.772 64.6464C168.916 64.6078 167.979 64.8144 166.82 65.3024C166.47 65.4491 166.067 65.3424 165.836 65.0424C165.606 64.7424 165.607 64.3251 165.839 64.0264C169.344 59.5104 175.643 57.4011 181.16 58.9024C186.676 60.4011 191.043 65.4064 191.78 71.0744C191.84 71.5304 191.519 71.9478 191.063 72.0064C190.61 72.0664 190.19 71.7451 190.131 71.2891C189.478 66.2691 185.61 61.8358 180.723 60.5078C176.772 59.4344 172.372 60.4478 169.191 62.9878C169.415 62.9744 169.635 62.9744 169.852 62.9838C171.344 63.0544 172.691 63.7358 173.45 64.8051C174.232 65.9064 174.42 67.4491 173.954 68.9344C173.526 70.2958 172.648 71.4078 171.932 72.2238C169.799 74.6544 167.172 76.5944 164.243 77.9198L164.32 77.9304C164.531 77.9598 164.74 77.9891 164.948 78.0224C166.631 78.2931 167.76 78.9571 168.304 79.9984C169.26 81.8251 168.019 83.9158 166.463 85.0838C164.694 86.4118 162.487 87.1238 160.28 87.1238Z" fill="#54200E"/>
<path d="M88.1056 110.857C88.1162 114.759 85.5789 117.931 82.4396 117.943C79.3 117.953 76.7458 114.801 76.7354 110.899C76.7245 106.997 79.2609 103.825 82.4005 103.815C85.5402 103.803 88.0949 106.956 88.1056 110.857Z" fill="#54200E"/>
<path d="M86.2322 108.597C86.2362 110.002 85.1802 111.145 83.8749 111.15C82.5682 111.154 81.5062 110.02 81.5021 108.614C81.4985 107.209 82.5542 106.066 83.8602 106.061C85.1669 106.056 86.2282 107.192 86.2322 108.597Z" fill="#F9EADA"/>
<path d="M139.471 110.705C139.482 114.606 142.035 117.76 145.175 117.748C148.315 117.736 150.851 114.564 150.84 110.662C150.83 106.761 148.276 103.608 145.136 103.62C141.996 103.632 139.46 106.804 139.471 110.705Z" fill="#54200E"/>
<path d="M141.33 108.42C141.334 109.825 142.395 110.96 143.702 110.956C145.007 110.95 146.063 109.808 146.059 108.402C146.055 106.997 144.994 105.862 143.687 105.866C142.382 105.872 141.326 107.014 141.33 108.42Z" fill="#F9EADA"/>
</g>
<mask id="mask2_1_758" style="mask-type:luminance" maskUnits="userSpaceOnUse" x="0" y="0" width="228" height="228">
<path d="M227.576 113.788C227.576 176.631 176.631 227.576 113.788 227.576C50.9448 227.576 0 176.631 0 113.788C0 50.9453 50.9448 -3.52635e-05 113.788 -3.52635e-05C176.631 -3.52635e-05 227.576 50.9453 227.576 113.788Z" fill="white"/>
</mask>
<g mask="url(#mask2_1_758)">
<mask id="mask3_1_758" style="mask-type:luminance" maskUnits="userSpaceOnUse" x="157" y="145" width="17" height="26">
<path d="M160.724 170.173C159.656 164.885 158.499 159.604 157.552 154.296C160.17 151.719 162.483 148.819 164.41 145.693C165.702 149.339 167.851 152.815 169.914 156.108C171.186 158.123 172.436 160.159 173.66 162.207C169.414 164.945 165.106 167.624 160.724 170.173Z" fill="white"/>
</mask>
<g mask="url(#mask3_1_758)">
<path d="M157.552 170.173H173.661V145.693H157.552V170.173Z" fill="#5E3734"/>
</g>
</g>
</svg>
