<svg width="65" height="65" viewBox="0 0 65 65" fill="none" xmlns="http://www.w3.org/2000/svg">
<mask id="mask0_102_24" style="mask-type:alpha" maskUnits="userSpaceOnUse" x="0" y="0" width="65" height="65">
<path d="M65 32.5C65 50.4493 50.4493 65 32.5 65C14.5507 65 0 50.4493 0 32.5C0 14.5507 14.5507 0 32.5 0C50.4493 0 65 14.5507 65 32.5Z" fill="#C4C4C4"/>
</mask>
<g mask="url(#mask0_102_24)">
<rect x="-5.06146" width="74.8566" height="74.8566" fill="#4DD0E2"/>
<rect x="26.1066" y="47.6844" width="12.2541" height="19.4467" fill="#FED69B"/>
<path d="M52.4795 50.082H11.9877C12.3886 46.1819 15.8632 22.7817 21.4759 15.923C25.2177 11.0816 33.6368 8.79534 40.8531 13.5023C48.1939 18.2904 50.8759 40.1301 52.4795 50.082Z" fill="#F26529"/>
<path d="M17.9242 35.5908C17.741 39.9553 20.2177 41.5868 21.479 41.8569L20.6883 32.2336C19.1026 32.9433 17.9904 34.0137 17.9242 35.5908Z" fill="#FFB64D"/>
<path d="M46.8105 35.9826C46.7943 40.3509 44.2457 41.8676 42.9734 42.08L44.2943 32.5C45.846 33.2813 46.8163 34.4041 46.8105 35.9826Z" fill="#FFB64D"/>
<circle cx="44.6209" cy="45.1537" r="3.72951" stroke="#EC0900" stroke-width="0.79918"/>
<circle cx="20.3791" cy="45.1537" r="3.72951" stroke="#EC0900" stroke-width="0.79918"/>
<path d="M43.5481 18.45L44.4756 31.8139C44.4756 31.8139 44.943 42.2194 40.0702 48.2825C38.3176 50.4631 36.0612 52.5586 32.5346 52.7371C29.5466 52.8884 27.2162 51.0629 25.4628 49.2274C21.1733 44.3678 21.1429 40.1832 20.7096 36.2685C20.2763 32.3538 20.2459 29.7891 20.2459 29.7891L21.6371 19.2599L32.5926 14.1189L43.5481 18.45Z" fill="#FFE0B2"/>
<path d="M24.375 23.5758C22.6937 32.5856 19.5233 33.0768 18.6476 33.0321L19.173 23.9151L20.3795 19.6247L22.9823 16.675L33.0966 12.7869L43.0796 16.675L47.1517 25.9262L45.4201 29.9693C33.5656 29.9693 26.5643 25.8998 24.375 23.5758Z" fill="#F3661D"/>
<circle cx="26.6393" cy="34.6311" r="1.06557" fill="black"/>
<circle cx="38.2275" cy="34.6311" r="1.06557" fill="black"/>
<path d="M30.9137 40.8164L30.6256 40.5766C30.4101 40.3972 30.5381 40.0489 30.8196 40.0489H34.2111C34.5013 40.0489 34.6241 40.4152 34.3915 40.5873L34.0153 40.8656C33.8199 41.0101 33.6049 41.1264 33.3765 41.2108L33.3282 41.2287C32.7797 41.4316 32.1757 41.4316 31.6273 41.2287C31.3674 41.1326 31.1261 40.9931 30.9137 40.8164Z" fill="#FFB64D"/>
<path d="M35.1496 44.476C33.3646 45.0599 30.9832 44.794 29.6805 44.5165C29.4801 44.4738 29.28 44.598 29.2366 44.7983C29.2056 44.9413 29.2639 45.09 29.3869 45.1693C31.7917 46.7219 34.1709 46.2683 35.6061 45.2217C35.7536 45.1141 35.804 44.9204 35.742 44.7486C35.6565 44.5118 35.3889 44.3978 35.1496 44.476Z" fill="#FFB64D"/>
<path d="M28.9425 31.5143C27.4317 31.223 25.4121 31.5874 24.3817 31.8608C24.2641 31.892 24.1411 31.8298 24.0993 31.7155C24.0626 31.6152 24.0994 31.5022 24.1901 31.4456C26.0237 30.3013 27.9437 30.4222 29.15 30.9836C29.2779 31.0431 29.3333 31.1916 29.2859 31.3245C29.236 31.4643 29.0883 31.5425 28.9425 31.5143Z" fill="black"/>
<path d="M35.6284 31.5143C37.1392 31.223 39.1588 31.5874 40.1892 31.8608C40.3068 31.892 40.4298 31.8298 40.4716 31.7155C40.5083 31.6152 40.4715 31.5022 40.3808 31.4456C38.5472 30.3013 36.6272 30.4222 35.4208 30.9836C35.293 31.0431 35.2376 31.1916 35.285 31.3245C35.3349 31.4643 35.4826 31.5425 35.6284 31.5143Z" fill="black"/>
<path d="M26.1066 54.3443L10.123 60.5178L25.1163 74.5902H38.4829L55.4098 60.5178L38.3607 54.3443L31.9672 65.2664L26.1066 54.3443Z" fill="#FD9704"/>
</g>
</svg>
